# 3ds Max Wavefront OBJ Exporter v0.97b - (c)2007 guruware
# File Created: 05.08.2021 16:49:02

mtllib sword.mtl

#
# object sword
#

v  -13.9994 0.1154 27.0785
v  -13.9994 0.1154 24.7161
v  44.5565 0.1154 24.7161
v  49.0196 0.1154 24.9142
v  52.1581 0.1154 25.1934
v  55.1378 0.1154 25.7277
v  58.3711 0.1154 26.4169
v  59.1413 0.1154 27.0785
v  -13.9994 0.7458 27.0785
v  59.1413 0.7458 27.0785
v  58.3711 0.7458 26.4169
v  55.1378 0.7458 25.7277
v  52.1581 0.7458 25.1934
v  49.0196 0.7458 24.9142
v  44.5565 0.7458 24.7161
v  -13.9994 0.7458 24.7161
v  -14.9556 0.0000 28.9062
v  -15.3091 0.0000 28.5717
v  -15.3091 0.0000 23.2107
v  -14.9556 0.0000 22.8762
v  -14.0816 0.0000 22.8762
v  -13.7281 0.0000 23.2107
v  -13.7281 0.0000 28.5717
v  -14.0816 0.0000 28.9062
v  -15.3091 0.8437 28.5717
v  -14.9556 0.8437 28.9062
v  -14.0816 0.8437 28.9062
v  -13.7281 0.8437 28.5717
v  -13.7281 0.8437 23.2107
v  -14.0816 0.8437 22.8762
v  -14.9556 0.8437 22.8762
v  -15.3091 0.8437 23.2107
v  -36.6436 -0.0178 27.1748
v  -37.2128 -0.0178 26.5353
v  -37.2128 -0.0178 25.2263
v  -36.6436 -0.0178 24.5868
v  -15.1740 -0.0178 24.5868
v  -15.1740 -0.0178 27.1748
v  -37.2128 0.8171 26.5353
v  -36.6436 0.8171 27.1748
v  -15.1740 0.8171 27.1748
v  -15.1740 0.8171 24.5868
v  -36.6436 0.8171 24.5868
v  -37.2128 0.8171 25.2263
# 44 vertices

vn -0.5774 -0.5774 0.5774
vn -0.5774 -0.5774 -0.5774
vn 0.0158 -0.7021 -0.7119
vn 0.0473 -0.7021 -0.7105
vn 0.0951 -0.6973 -0.7105
vn 0.1368 -0.7035 -0.6974
vn 0.0764 0.6843 -0.7252
vn 0.7861 0.5451 0.2913
vn 1.0000 0.0000 -0.0000
vn -0.7861 -0.5451 -0.2913
vn 0.2680 0.6366 -0.7231
vn -0.2680 -0.6366 0.7231
vn 0.0000 -0.7071 0.7071
vn -0.5774 0.5774 0.5774
vn 0.0000 0.7071 0.7071
vn 0.2680 -0.6366 -0.7231
vn -0.2680 0.6366 0.7231
vn 0.7861 -0.5451 0.2913
vn -0.7861 0.5451 -0.2913
vn 0.0764 -0.6843 -0.7252
vn 0.1368 0.7035 -0.6974
vn 0.0951 0.6973 -0.7105
vn 0.0473 0.7021 -0.7105
vn 0.0158 0.7021 -0.7119
vn -0.5774 0.5774 -0.5774
vn -0.2864 -0.6326 0.7196
vn -0.7148 -0.6280 0.3077
vn -0.7148 -0.6280 -0.3077
vn -0.2864 -0.6326 -0.7196
vn 0.2864 -0.6326 -0.7196
vn 0.7148 -0.6280 -0.3077
vn 0.7148 -0.6280 0.3077
vn 0.2864 -0.6326 0.7196
vn -0.7148 0.6280 0.3077
vn -0.2864 0.6326 0.7196
vn 0.2864 0.6326 0.7196
vn 0.7148 0.6280 0.3077
vn 0.7148 0.6280 -0.3077
vn 0.2864 0.6326 -0.7196
vn -0.2864 0.6326 -0.7196
vn -0.7148 0.6280 -0.3077
vn -0.3194 -0.6255 0.7118
vn -0.7219 -0.6351 0.2747
vn -0.7219 -0.6351 -0.2747
vn -0.3194 -0.6255 -0.7118
vn 0.5774 -0.5774 -0.5774
vn 0.5774 -0.5774 0.5774
vn -0.7219 0.6351 0.2747
vn -0.3194 0.6255 0.7118
vn 0.5774 0.5774 0.5774
vn 0.5774 0.5774 -0.5774
vn -0.3194 0.6255 -0.7118
vn -0.7219 0.6351 -0.2747
# 53 vertex normals

vt 1.0000 0.0000 0.0000
vt 1.0000 1.0000 0.0000
vt 0.1994 1.0000 0.0000
vt 0.1384 0.9161 0.0000
vt 0.0955 0.7980 0.0000
vt 0.0547 0.5718 0.0000
vt 0.0105 0.2801 0.0000
vt 0.0000 0.0000 0.0000
vt 0.9895 0.2801 0.0000
vt 0.9453 0.5718 0.0000
vt 0.9045 0.7980 0.0000
vt 0.8616 0.9161 0.0000
vt 0.8006 1.0000 0.0000
vt 0.0000 1.0000 0.0000
vt 0.1994 0.0000 0.0000
vt -115.0720 -0.0003 0.0000
vt -115.0720 0.9997 0.0000
vt -82.8330 -0.0002 0.0000
vt -82.8330 0.9998 0.0000
vt -49.2210 -0.0001 0.0000
vt -23.1529 -0.0001 0.0000
vt -23.1529 0.9999 0.0000
vt -49.2210 0.9999 0.0000
vt -9.5116 -0.0000 0.0000
vt -9.5116 1.0000 0.0000
vt 0.7764 0.0000 0.0000
vt 1.0000 0.0555 0.0000
vt 1.0000 0.9445 0.0000
vt 0.7764 1.0000 0.0000
vt 0.2236 1.0000 0.0000
vt 0.0000 0.9445 0.0000
vt 0.0000 0.0555 0.0000
vt 0.2236 0.0000 0.0000
vt 0.0555 0.0000 0.0000
vt 0.9445 0.0000 0.0000
vt 0.9445 1.0000 0.0000
vt 0.0555 1.0000 0.0000
vt -1.5169 -0.0000 0.0000
vt -1.5169 1.0000 0.0000
vt 2.5169 1.0000 0.0000
vt 2.5169 0.0000 0.0000
vt -0.3763 -0.0000 0.0000
vt -0.3763 1.0000 0.0000
vt 0.9742 0.0000 0.0000
vt 1.0000 0.2471 0.0000
vt 1.0000 0.7529 0.0000
vt 0.9742 1.0000 0.0000
vt 0.0000 0.2471 0.0000
vt 0.0258 0.0000 0.0000
vt 0.0258 1.0000 0.0000
vt 0.0000 0.7529 0.0000
vt 0.2471 0.0000 0.0000
vt 0.7529 0.0000 0.0000
vt 0.7529 1.0000 0.0000
vt 0.2471 1.0000 0.0000
vt 1.6330 1.0000 0.0000
vt 1.6330 0.0000 0.0000
vt -0.6330 -0.0000 0.0000
vt -0.6330 1.0000 0.0000
# 59 texture coords

o sword
g sword
usemtl wire_108008136
s 1
f 1/1/1 2/2/2 3/3/3 4/4/4 5/5/5 6/6/6 7/7/7 7/7/8 8/8/9 7/7/10 7/7/8 8/8/11 8/8/12 7/7/9 8/8/11 8/8/9 8/8/13 
f 9/8/14 10/1/15 10/1/9 10/1/16 11/9/9 10/1/17 10/1/16 11/9/18 11/9/19 10/1/9 11/9/18 11/9/20 12/10/21 13/11/22 14/12/23 15/13/24 16/14/25 
s 2
f 1/8/1 8/1/13 10/2/15 9/14/14 
s 4
f 8/8/13 8/8/9 10/14/9 10/14/15 
s 2
f 3/15/3 2/1/2 16/2/25 15/3/24 
s 4
f 2/8/2 1/1/1 9/2/14 16/14/25 
f 8/16/9 8/16/11 10/17/16 10/17/9 
s 2
f 7/18/8 7/18/7 11/19/20 11/19/18 
f 6/20/6 5/21/5 13/22/22 12/23/21 
f 7/18/7 6/20/6 12/23/21 11/19/20 
f 5/21/5 4/24/4 14/25/23 13/22/22 
f 4/24/4 3/15/3 15/3/24 14/25/23 
f 8/16/11 7/18/8 11/19/18 10/17/16 
f 7/18/9 8/16/12 10/17/17 11/19/9 
s 4
f 7/18/10 8/16/9 10/17/9 11/19/19 
s 8
f 8/16/11 7/18/9 11/19/9 10/17/16 
f 7/18/8 7/18/10 11/19/19 11/19/18 
s 4
f 8/16/12 8/16/11 10/17/16 10/17/17 
s 2
f 8/16/9 7/18/8 11/19/18 10/17/9 
usemtl 02___Default
s 1
f 17/26/26 18/27/27 19/28/28 20/29/29 21/30/30 22/31/31 23/32/32 24/33/33 
f 25/32/34 26/33/35 27/26/36 28/27/37 29/28/38 30/29/39 31/30/40 32/31/41 
s 2
f 17/33/26 24/26/33 27/29/36 26/30/35 
f 23/34/32 22/35/31 29/36/38 28/37/37 
f 21/33/30 20/26/29 31/29/40 30/30/39 
f 19/34/28 18/35/27 25/36/34 32/37/41 
s 4
f 24/38/33 23/34/32 28/37/37 27/39/36 
f 26/40/35 25/36/34 18/35/27 17/41/26 
f 22/42/31 21/33/30 30/30/39 29/43/38 
f 20/38/29 19/34/28 32/37/41 31/39/40 
s 1
f 33/44/42 34/45/43 35/46/44 36/47/45 37/14/46 38/8/47 
f 39/48/48 40/49/49 41/1/50 42/2/51 43/50/52 44/51/53 
s 2
f 33/49/42 38/1/47 41/2/50 40/50/49 
s 4
f 38/8/47 37/1/46 42/2/51 41/14/50 
s 2
f 37/8/46 36/44/45 43/47/52 42/14/51 
f 35/52/44 34/53/43 39/54/48 44/55/53 
s 4
f 40/56/49 39/54/48 34/53/43 33/57/42 
f 36/58/45 35/52/44 44/55/53 43/59/52 
# 37 polygons

