# 3ds Max Wavefront OBJ Exporter v0.97b - (c)2007 guruware
# File Created: 05.08.2021 15:56:49

mtllib lemon.mtl

#
# object Lemon
#

v  -4.8009 -0.7570 2.8374
v  -5.0326 -2.0916 0.2450
v  -4.2959 -2.7648 1.3106
v  -4.7662 -1.0105 3.2336
v  -4.0627 -2.6512 -1.7877
v  -2.6699 -2.6512 -2.9564
v  -1.5732 -3.5240 -1.6495
v  -2.9660 -3.5240 -0.4808
v  -0.1110 -3.9753 0.0931
v  -1.5038 -3.9753 1.2618
v  -3.1466 -3.0888 2.6403
v  -4.3892 -1.0105 3.6829
v  -2.0366 -2.7648 4.0030
v  -4.0121 -1.0105 4.1322
v  1.3512 -3.5240 1.8358
v  -0.0416 -3.5240 3.0044
v  2.4479 -2.6512 3.1427
v  1.0551 -2.6512 4.3114
v  -1.1151 -2.0916 4.9136
v  -3.6280 -0.7570 4.2353
v  -1.2771 -2.6512 -4.1251
v  -0.1805 -3.5240 -2.8181
v  0.8931 -2.0916 -4.7273
v  3.1883 -0.9813 -4.2351
v  3.6914 -1.3132 -4.1002
v  1.8146 -2.7648 -3.8167
v  4.1852 -1.3132 -3.5118
v  2.9246 -3.0888 -2.4540
v  1.2818 -3.9753 -1.0755
v  2.7440 -3.5240 0.6671
v  4.6789 -1.3132 -2.9234
v  4.0738 -2.7648 -1.1243
v  4.7244 -0.9813 -2.4045
v  4.8106 -2.0916 -0.0587
v  3.8406 -2.6512 1.9740
v  -4.8009 0.6915 2.8374
v  -4.7662 0.9450 3.2336
v  -4.2959 2.6993 1.3106
v  -5.0326 2.0261 0.2450
v  -4.3892 0.9450 3.6829
v  -3.1372 3.0806 2.6324
v  -0.1110 3.9753 0.0931
v  -1.5732 3.4585 -1.6495
v  -2.9660 3.4585 -0.4808
v  -1.5038 3.9753 1.2618
v  -2.6699 2.5857 -2.9564
v  -4.0627 2.5857 -1.7877
v  -4.0121 0.9450 4.1322
v  -2.0015 2.8636 4.0449
v  -3.6280 0.6915 4.2353
v  -1.0800 2.1904 4.9555
v  2.4830 2.7500 3.1846
v  1.3863 3.6229 1.8776
v  -0.0064 3.6229 3.0463
v  1.0902 2.7500 4.3532
v  -0.1805 3.4585 -2.8181
v  -1.2771 2.5857 -4.1251
v  1.2818 3.9753 -1.0755
v  4.1852 1.2477 -3.5118
v  3.6914 1.2477 -4.1002
v  1.8146 2.6993 -3.8167
v  2.9152 3.0806 -2.4461
v  3.1883 0.9158 -4.2351
v  0.8931 2.0261 -4.7273
v  2.7791 3.6229 0.7089
v  3.8758 2.7500 2.0159
v  4.7244 0.9158 -2.4045
v  4.6789 1.2477 -2.9234
v  4.1090 2.8636 -1.0824
v  4.8457 2.1904 -0.0168
v  -5.5845 -0.4531 3.9947
v  -5.5644 -0.6003 4.2246
v  -5.6947 -0.0328 4.3340
v  -5.7285 -0.0328 4.0291
v  -5.3455 -0.6003 4.4854
v  -5.4759 -0.0328 4.5948
v  -5.3455 0.5348 4.4854
v  -5.5644 0.5348 4.2246
v  -5.5845 0.3876 3.9947
v  -5.1267 -0.6003 4.7462
v  -5.2571 -0.0328 4.8556
v  -4.9037 -0.4531 4.8060
v  -4.9626 -0.0328 4.9418
v  -4.9037 0.3876 4.8060
v  -5.1267 0.5348 4.7462
v  -0.9227 -0.0328 5.3046
v  -3.7294 -0.0328 4.4692
v  2.8134 -0.0328 3.5784
v  1.4207 -0.0328 4.7470
v  4.2062 -0.0328 2.4097
v  5.1872 -0.0328 -2.3176
v  5.1622 -0.0328 0.1988
v  5.6406 -0.6702 -3.6848
v  5.6100 -0.8933 -4.0335
v  5.8077 -0.0328 -4.1994
v  5.9516 -0.0328 -3.6264
v  5.2782 -0.8933 -4.4289
v  5.4759 -0.0328 -4.5948
v  5.2782 0.8278 -4.4289
v  5.6100 0.8278 -4.0335
v  5.6406 0.6047 -3.6848
v  4.9464 -0.8933 -4.8244
v  5.1441 -0.0328 -4.9903
v  4.6083 -0.6702 -4.9151
v  4.6048 -0.0328 -5.2315
v  4.6083 0.6047 -4.9151
v  4.9464 0.8278 -4.8244
v  0.7007 -0.0328 -5.1183
v  3.1832 -0.0328 -4.7059
v  -3.0354 -0.0328 -3.3921
v  -1.6427 -0.0328 -4.5607
v  -4.4282 -0.0328 -2.2234
v  -5.0489 -0.0328 2.8966
v  -5.3843 -0.0328 -0.0125
# 114 vertices

vn -0.9684 -0.2431 -0.0560
vn -0.9120 -0.4047 -0.0674
vn -0.6916 -0.7025 0.1678
vn -0.7608 -0.6429 0.0891
vn -0.6948 -0.5453 -0.4689
vn -0.5330 -0.5589 -0.6352
vn -0.2499 -0.9213 -0.2978
vn -0.4076 -0.8997 -0.1564
vn 0.0000 -1.0000 -0.0000
vn -0.1657 -0.9763 0.1390
vn -0.4883 -0.7705 0.4097
vn -0.4785 -0.7809 0.4015
vn -0.2854 -0.7025 0.6519
vn -0.2199 -0.6429 0.7337
vn 0.2499 -0.9213 0.2978
vn 0.0833 -0.8997 0.4285
vn 0.5330 -0.5589 0.6352
vn 0.3411 -0.5453 0.7657
vn -0.0920 -0.4047 0.9098
vn -0.1130 -0.2431 0.9634
vn -0.3411 -0.5453 -0.7657
vn -0.0833 -0.8997 -0.4285
vn 0.0720 -0.4122 -0.9082
vn 0.0811 -0.3113 -0.9468
vn 0.1750 -0.6936 -0.6988
vn 0.2518 -0.7285 -0.6370
vn 0.4426 -0.8162 -0.3714
vn 0.4666 -0.7931 -0.3915
vn 0.1657 -0.9763 -0.1390
vn 0.4076 -0.8997 0.1564
vn 0.7186 -0.6936 -0.0510
vn 0.6711 -0.7285 -0.1374
vn 0.9465 -0.3113 0.0845
vn 0.9069 -0.4122 0.0868
vn 0.6948 -0.5453 0.4689
vn -0.9684 0.2431 -0.0560
vn -0.7608 0.6429 0.0891
vn -0.7001 0.6956 0.1609
vn -0.9120 0.4047 -0.0674
vn -0.4812 0.7781 0.4037
vn -0.5212 0.7644 0.3796
vn -0.0283 0.9990 -0.0338
vn -0.2597 0.9148 -0.3095
vn -0.4173 0.8933 -0.1670
vn -0.1948 0.9748 0.1088
vn -0.5330 0.5589 -0.6352
vn -0.6948 0.5453 -0.4689
vn -0.2302 0.6270 0.7442
vn -0.3134 0.7079 0.6330
vn -0.1266 0.2437 0.9616
vn -0.0943 0.3912 0.9155
vn 0.5376 0.5481 0.6407
vn 0.2335 0.9317 0.2783
vn 0.0688 0.9098 0.4093
vn 0.3458 0.5354 0.7705
vn -0.0919 0.8933 -0.4400
vn -0.3411 0.5453 -0.7657
vn 0.1410 0.9748 -0.1729
vn 0.4463 0.8127 -0.3745
vn 0.1750 0.6936 -0.6988
vn 0.2459 0.7218 -0.6470
vn 0.4426 0.7866 -0.4306
vn 0.0811 0.3113 -0.9468
vn 0.0720 0.4122 -0.9082
vn 0.3911 0.9098 0.1389
vn 0.6988 0.5354 0.4743
vn 0.9483 0.3100 0.0684
vn 0.7349 0.6753 -0.0622
vn 0.6597 0.7315 -0.1726
vn 0.9135 0.3981 0.0833
vn -0.8738 -0.3420 -0.3457
vn -0.7722 -0.6093 0.1801
vn -0.9185 0.0000 0.3955
vn -0.9784 0.0000 -0.2066
vn -0.5721 -0.6650 0.4801
vn -0.7660 0.0000 0.6428
vn -0.5721 0.6650 0.4801
vn -0.7722 0.6093 0.1801
vn -0.8738 0.3420 -0.3457
vn -0.3114 -0.6094 0.7292
vn -0.5490 0.0000 0.8358
vn 0.1887 -0.3420 0.9206
vn 0.0336 0.0000 0.9994
vn 0.1887 0.3420 0.9206
vn -0.3114 0.6094 0.7292
vn 0.0027 -0.0130 0.9999
vn 0.0854 0.0000 0.9963
vn 0.6427 -0.0129 0.7660
vn 0.4618 -0.0123 0.8869
vn 0.7933 -0.0123 0.6088
vn 0.9563 -0.0000 0.2924
vn 0.9720 -0.0135 0.2346
vn 0.8231 -0.4359 0.3641
vn 0.7636 -0.6228 -0.1706
vn 0.8912 0.0000 -0.4537
vn 0.9875 0.0000 0.1577
vn 0.5630 -0.6781 -0.4724
vn 0.7660 0.0000 -0.6428
vn 0.5630 0.6781 -0.4724
vn 0.7636 0.6228 -0.1706
vn 0.8231 0.4359 0.3641
vn 0.3006 -0.6228 -0.7224
vn 0.6015 0.0000 -0.7988
vn -0.2157 -0.4359 -0.8738
vn 0.0162 0.0000 -0.9999
vn -0.2157 0.4359 -0.8738
vn 0.3006 0.6228 -0.7224
vn -0.0632 -0.0000 -0.9980
vn -0.1219 -0.0000 -0.9925
vn -0.6428 0.0000 -0.7660
vn -0.4621 0.0000 -0.8868
vn -0.7931 0.0000 -0.6091
vn -0.9664 0.0000 -0.2572
vn -0.9841 -0.0000 -0.1777
# 114 vertex normals

o Lemon
g Lemon
usemtl 13___Default
s 1
f 1//1 2//2 3//3 4//4 
f 5//5 6//6 7//7 8//8 
f 9//9 10//10 8//8 7//7 
f 11//11 12//12 4//4 3//3 
f 12//12 11//11 13//13 14//14 
f 10//10 9//9 15//15 16//16 
f 17//17 18//18 16//16 15//15 
f 19//19 20//20 14//14 13//13 
f 6//6 21//21 22//22 7//7 
f 23//23 24//24 25//25 26//26 
f 27//27 28//28 26//26 25//25 
f 29//29 9//9 7//7 22//22 
f 9//9 29//29 30//30 15//15 
f 28//28 27//27 31//31 32//32 
f 33//33 34//34 32//32 31//31 
f 35//35 17//17 15//15 30//30 
f 36//36 37//37 38//38 39//39 
f 37//37 40//40 41//41 38//38 
f 42//42 43//43 44//44 45//45 
f 43//43 46//46 47//47 44//44 
f 40//40 48//48 49//49 41//41 
f 48//48 50//50 51//51 49//49 
f 52//52 53//53 54//54 55//55 
f 53//53 42//42 45//45 54//54 
f 46//46 43//43 56//56 57//57 
f 43//43 42//42 58//58 56//56 
f 59//59 60//60 61//61 62//62 
f 60//60 63//63 64//64 61//61 
f 42//42 53//53 65//65 58//58 
f 53//53 52//52 66//66 65//65 
f 67//67 68//68 69//69 70//70 
f 68//68 59//59 62//62 69//69 
f 71//71 72//72 73//73 74//74 
s 2
f 72//72 75//75 76//76 73//73 
f 77//77 78//78 73//73 76//76 
s 1
f 78//78 79//79 74//74 73//73 
s 2
f 75//75 80//80 81//81 76//76 
s 1
f 80//80 82//82 83//83 81//81 
f 84//84 85//85 81//81 83//83 
s 2
f 85//85 77//77 76//76 81//81 
s 1
f 20//20 19//19 86//86 87//87 
f 18//18 17//17 88//88 89//89 
f 52//52 55//55 89//89 88//88 
f 51//51 50//50 87//87 86//86 
f 17//17 35//35 90//90 88//88 
f 34//34 33//33 91//91 92//92 
f 67//67 70//70 92//92 91//91 
f 66//66 52//52 88//88 90//90 
f 93//93 94//94 95//95 96//96 
s 2
f 94//94 97//97 98//98 95//95 
f 99//99 100//100 95//95 98//98 
s 1
f 100//100 101//101 96//96 95//95 
s 2
f 97//97 102//102 103//103 98//98 
s 1
f 102//102 104//104 105//105 103//103 
f 106//106 107//107 103//103 105//105 
s 2
f 107//107 99//99 98//98 103//103 
s 1
f 24//24 23//23 108//108 109//109 
f 21//21 6//6 110//110 111//111 
f 46//46 57//57 111//111 110//110 
f 64//64 63//63 109//109 108//108 
f 6//6 5//5 112//112 110//110 
f 2//2 1//1 113//113 114//114 
f 36//36 39//39 114//114 113//113 
f 47//47 46//46 110//110 112//112 
s 4
f 1//1 4//4 72//72 71//71 
s 8
f 4//4 12//12 75//75 72//72 
f 12//12 14//14 80//80 75//75 
s 4
f 14//14 20//20 82//82 80//80 
s 2
f 20//20 87//87 83//83 82//82 
f 87//87 50//50 84//84 83//83 
s 4
f 50//50 48//48 85//85 84//84 
s 8
f 48//48 40//40 77//77 85//85 
f 40//40 37//37 78//78 77//77 
s 4
f 37//37 36//36 79//79 78//78 
s 2
f 36//36 113//113 74//74 79//79 
f 113//113 1//1 71//71 74//74 
s 4
f 25//25 24//24 104//104 102//102 
s 2
f 24//24 109//109 105//105 104//104 
f 109//109 63//63 106//106 105//105 
s 4
f 63//63 60//60 107//107 106//106 
s 8
f 60//60 59//59 99//99 107//107 
f 59//59 68//68 100//100 99//99 
s 4
f 68//68 67//67 101//101 100//100 
s 2
f 67//67 91//91 96//96 101//101 
f 91//91 33//33 93//93 96//96 
s 4
f 33//33 31//31 94//94 93//93 
s 8
f 31//31 27//27 97//97 94//94 
f 27//27 25//25 102//102 97//97 
s 1
f 2//2 5//5 8//8 3//3 
f 10//10 11//11 3//3 8//8 
f 11//11 10//10 16//16 13//13 
f 18//18 19//19 13//13 16//16 
f 21//21 23//23 26//26 22//22 
f 28//28 29//29 22//22 26//26 
f 29//29 28//28 32//32 30//30 
f 34//34 35//35 30//30 32//32 
f 38//38 44//44 47//47 39//39 
f 41//41 45//45 44//44 38//38 
f 49//49 54//54 45//45 41//41 
f 51//51 55//55 54//54 49//49 
f 56//56 61//61 64//64 57//57 
f 58//58 62//62 61//61 56//56 
f 65//65 69//69 62//62 58//58 
f 66//66 70//70 69//69 65//65 
f 19//19 18//18 89//89 86//86 
f 55//55 51//51 86//86 89//89 
f 35//35 34//34 92//92 90//90 
f 70//70 66//66 90//90 92//92 
f 23//23 21//21 111//111 108//108 
f 57//57 64//64 108//108 111//111 
f 5//5 2//2 114//114 112//112 
f 39//39 47//47 112//112 114//114 
# 112 polygons

