# 3ds Max Wavefront OBJ Exporter v0.97b - (c)2007 guruware
# File Created: 05.08.2021 15:56:34

mtllib orange.mtl

#
# object Orange
#

v  -3.2307 -3.2307 3.2307
v  -3.7998 -3.7998 1.9164
v  -2.0706 -4.8461 2.0706
v  -1.9164 -3.7998 3.7998
v  -4.0806 -4.0806 -0.0000
v  -2.2248 -5.1985 -0.0000
v  0.0000 -5.1985 2.2248
v  0.0000 -4.0806 4.0806
v  0.0000 -5.5730 -0.0000
v  -3.7998 -3.7998 -1.9164
v  -3.2307 -3.2307 -3.2307
v  -1.9164 -3.7998 -3.7998
v  -2.0706 -4.8461 -2.0706
v  0.0000 -4.0806 -4.0806
v  0.0000 -5.1985 -2.2248
v  3.2307 -3.2307 -3.2307
v  3.7998 -3.7998 -1.9164
v  2.0706 -4.8461 -2.0706
v  1.9164 -3.7998 -3.7998
v  4.0806 -4.0806 -0.0000
v  2.2248 -5.1985 -0.0000
v  3.7998 -3.7998 1.9164
v  3.2307 -3.2307 3.2307
v  1.9164 -3.7998 3.7998
v  2.0706 -4.8461 2.0706
v  -3.2307 3.2307 3.2307
v  -1.9164 3.7998 3.7998
v  -1.6544 4.8461 1.6544
v  -3.7998 3.7998 1.9164
v  0.0000 4.0806 4.0806
v  0.0000 5.0490 2.2248
v  -2.2248 5.0490 -0.0000
v  -4.0806 4.0806 -0.0000
v  0.0000 4.8044 -0.0000
v  1.9164 3.7998 3.7998
v  3.2307 3.2307 3.2307
v  3.7998 3.7998 1.9164
v  1.6544 4.8461 1.6544
v  4.0806 4.0806 -0.0000
v  2.2248 5.0490 -0.0000
v  3.2307 3.2307 -3.2307
v  1.9164 3.7998 -3.7998
v  1.6544 4.8461 -1.6544
v  3.7998 3.7998 -1.9164
v  0.0000 4.0806 -4.0806
v  0.0000 5.0490 -2.2248
v  -1.9164 3.7998 -3.7998
v  -3.2307 3.2307 -3.2307
v  -3.7998 3.7998 -1.9164
v  -1.6544 4.8461 -1.6544
v  -2.0706 -2.0706 4.8461
v  -3.7998 -1.9164 3.7998
v  0.0000 -2.2248 5.1985
v  -2.2248 0.0000 5.1985
v  -4.0806 0.0000 4.0806
v  0.0000 0.0000 5.5730
v  3.7998 -1.9164 3.7998
v  2.0706 -2.0706 4.8461
v  4.0806 0.0000 4.0806
v  2.2248 0.0000 5.1985
v  2.0706 2.0706 4.8461
v  3.7998 1.9164 3.7998
v  0.0000 2.2248 5.1985
v  -3.7998 1.9164 3.7998
v  -2.0706 2.0706 4.8461
v  4.8461 -2.0706 2.0706
v  5.1985 -2.2248 -0.0000
v  5.1985 0.0000 2.2248
v  5.5730 0.0000 -0.0000
v  3.7998 -1.9164 -3.7998
v  4.8461 -2.0706 -2.0706
v  4.0806 0.0000 -4.0806
v  5.1985 0.0000 -2.2248
v  4.8461 2.0706 -2.0706
v  3.7998 1.9164 -3.7998
v  5.1985 2.2248 -0.0000
v  4.8461 2.0706 2.0706
v  2.0706 -2.0706 -4.8461
v  0.0000 -2.2248 -5.1985
v  2.2248 0.0000 -5.1985
v  0.0000 0.0000 -5.5730
v  -3.7998 -1.9164 -3.7998
v  -2.0706 -2.0706 -4.8461
v  -4.0806 0.0000 -4.0806
v  -2.2248 0.0000 -5.1985
v  -2.0706 2.0706 -4.8461
v  -3.7998 1.9164 -3.7998
v  0.0000 2.2248 -5.1985
v  2.0706 2.0706 -4.8461
v  -4.8461 -2.0706 -2.0706
v  -5.1985 -2.2248 -0.0000
v  -5.1985 0.0000 -2.2248
v  -5.5730 0.0000 -0.0000
v  -4.8461 -2.0706 2.0706
v  -5.1985 0.0000 2.2248
v  -4.8461 2.0706 2.0706
v  -5.1985 2.2248 -0.0000
v  -4.8461 2.0706 -2.0706
v  0.1142 4.8552 0.3011
v  -0.3515 4.8176 0.2126
v  -0.3653 4.8721 -0.3684
v  0.0896 4.8821 -0.5123
v  0.4021 4.8502 -0.0847
v  0.5647 4.9251 -0.4750
v  0.5463 4.9305 -0.4993
v  0.5357 4.9788 -0.4794
v  0.5541 4.9734 -0.4552
v  -0.2128 4.9322 -0.7141
v  -0.2428 4.9344 -0.7057
v  -0.2327 4.9680 -0.6789
v  -0.2027 4.9659 -0.6873
v  -0.7795 5.1808 -0.1224
v  -0.7790 5.1796 -0.0948
v  -0.7514 5.2207 -0.0938
v  -0.7519 5.2219 -0.1214
v  -0.2883 5.1355 0.7329
v  -0.2587 5.1321 0.7423
v  -0.2471 5.1767 0.7235
v  -0.2767 5.1801 0.7142
v  0.6068 5.1331 0.3995
v  0.6244 5.1355 0.3744
v  0.6002 5.1786 0.3616
v  0.5826 5.1762 0.3867
v  0.1031 4.8885 0.2931
v  0.3953 4.8642 -0.0826
v  0.0971 4.8927 -0.4946
v  -0.3635 4.8890 -0.3574
v  -0.3482 4.8451 0.2145
v  0.3482 4.9103 -0.4825
v  0.5000 4.8660 -0.2831
v  0.3376 4.9586 -0.4627
v  0.4894 4.9143 -0.2632
v  -0.3073 4.9129 -0.5025
v  -0.0652 4.8986 -0.5822
v  -0.2939 4.9348 -0.4665
v  -0.0519 4.9205 -0.5462
v  -0.5082 5.0104 0.0113
v  -0.5121 5.0212 -0.2417
v  -0.4806 5.0515 0.0123
v  -0.4845 5.0623 -0.2407
v  -0.0827 4.9956 0.4964
v  -0.3245 5.0233 0.4198
v  -0.0711 5.0402 0.4776
v  -0.3129 5.0679 0.4010
v  0.4822 4.9893 0.1187
v  0.3362 4.9699 0.3267
v  0.4580 5.0324 0.1059
v  0.3120 5.0130 0.3139
# 148 vertices

vn -0.5774 -0.5774 0.5774
vn -0.6618 -0.6618 0.3523
vn -0.3450 -0.8729 0.3450
vn -0.3523 -0.6618 0.6618
vn -0.7071 -0.7071 -0.0000
vn -0.3482 -0.9374 -0.0000
vn 0.0000 -0.9374 0.3482
vn 0.0000 -0.7071 0.7071
vn 0.0000 -1.0000 -0.0000
vn -0.6618 -0.6618 -0.3523
vn -0.5774 -0.5774 -0.5774
vn -0.3523 -0.6618 -0.6618
vn -0.3450 -0.8729 -0.3450
vn 0.0000 -0.7071 -0.7071
vn 0.0000 -0.9374 -0.3482
vn 0.5774 -0.5774 -0.5774
vn 0.6618 -0.6618 -0.3523
vn 0.3450 -0.8729 -0.3450
vn 0.3523 -0.6618 -0.6618
vn 0.7071 -0.7071 -0.0000
vn 0.3482 -0.9374 -0.0000
vn 0.6618 -0.6618 0.3523
vn 0.5774 -0.5774 0.5774
vn 0.3523 -0.6618 0.6618
vn 0.3450 -0.8729 0.3450
vn -0.5774 0.5774 0.5774
vn -0.3582 0.7091 0.6073
vn -0.2846 0.9154 0.2846
vn -0.6073 0.7091 0.3582
vn 0.0000 0.7277 0.6859
vn -0.0000 0.9716 0.2366
vn -0.2366 0.9716 0.0000
vn -0.6859 0.7277 -0.0000
vn 0.0000 1.0000 -0.0000
vn 0.3582 0.7091 0.6073
vn 0.5774 0.5774 0.5774
vn 0.6073 0.7091 0.3582
vn 0.2846 0.9154 0.2846
vn 0.6859 0.7277 -0.0000
vn 0.2366 0.9716 0.0000
vn 0.5774 0.5774 -0.5774
vn 0.3582 0.7091 -0.6073
vn 0.2846 0.9154 -0.2846
vn 0.6073 0.7091 -0.3582
vn 0.0000 0.7277 -0.6859
vn 0.0000 0.9716 -0.2366
vn -0.3582 0.7091 -0.6073
vn -0.5774 0.5774 -0.5774
vn -0.6073 0.7091 -0.3582
vn -0.2846 0.9154 -0.2846
vn -0.3450 -0.3450 0.8729
vn -0.6618 -0.3523 0.6618
vn -0.0000 -0.3482 0.9374
vn -0.3482 -0.0000 0.9374
vn -0.7071 -0.0000 0.7071
vn 0.0000 -0.0000 1.0000
vn 0.6618 -0.3523 0.6618
vn 0.3450 -0.3450 0.8729
vn 0.7071 0.0000 0.7071
vn 0.3482 -0.0000 0.9374
vn 0.3450 0.3450 0.8729
vn 0.6618 0.3523 0.6618
vn 0.0000 0.3482 0.9374
vn -0.6618 0.3523 0.6618
vn -0.3450 0.3450 0.8729
vn 0.8729 -0.3450 0.3450
vn 0.9374 -0.3482 0.0000
vn 0.9374 -0.0000 0.3482
vn 1.0000 -0.0000 -0.0000
vn 0.6618 -0.3523 -0.6618
vn 0.8729 -0.3450 -0.3450
vn 0.7071 0.0000 -0.7071
vn 0.9374 -0.0000 -0.3482
vn 0.8729 0.3450 -0.3450
vn 0.6618 0.3523 -0.6618
vn 0.9374 0.3482 -0.0000
vn 0.8729 0.3450 0.3450
vn 0.3450 -0.3450 -0.8729
vn 0.0000 -0.3482 -0.9374
vn 0.3482 -0.0000 -0.9374
vn 0.0000 -0.0000 -1.0000
vn -0.6618 -0.3523 -0.6618
vn -0.3450 -0.3450 -0.8729
vn -0.7071 0.0000 -0.7071
vn -0.3482 -0.0000 -0.9374
vn -0.3450 0.3450 -0.8729
vn -0.6618 0.3523 -0.6618
vn 0.0000 0.3482 -0.9374
vn 0.3450 0.3450 -0.8729
vn -0.8729 -0.3450 -0.3450
vn -0.9374 -0.3482 -0.0000
vn -0.9374 -0.0000 -0.3482
vn -1.0000 -0.0000 -0.0000
vn -0.8729 -0.3450 0.3450
vn -0.9374 -0.0000 0.3482
vn -0.8729 0.3450 0.3450
vn -0.9374 0.3482 -0.0000
vn -0.8729 0.3450 -0.3450
vn 0.2410 -0.7074 0.6644
vn -0.5205 -0.7771 0.3538
vn -0.6603 -0.6252 -0.4160
vn 0.3150 -0.3551 -0.8801
vn 0.6983 -0.7072 0.1106
vn 0.8525 -0.4381 -0.2851
vn 0.3892 -0.2986 -0.8714
vn 0.2301 0.8479 -0.4775
vn 0.6840 0.7227 0.0991
vn 0.1121 -0.3121 -0.9434
vn -0.6261 -0.2555 -0.7367
vn -0.3979 0.8792 -0.2619
vn 0.3118 0.8288 -0.4646
vn -0.8798 -0.1329 -0.4563
vn -0.8687 -0.1688 0.4657
vn -0.2241 0.8394 0.4952
vn -0.2369 0.8721 -0.4282
vn -0.7197 -0.2185 0.6590
vn 0.1558 -0.3231 0.9334
vn 0.4239 0.7558 0.4992
vn -0.4519 0.8636 0.2237
vn 0.4551 -0.2058 0.8663
vn 0.9837 -0.1338 0.1197
vn 0.4290 0.8867 -0.1725
vn -0.0988 0.8120 0.5753
vn 0.1470 0.9580 0.2462
vn 0.3712 0.9156 -0.1546
vn -0.0345 0.9843 -0.1733
vn -0.0407 0.9173 -0.3960
vn -0.7287 0.6754 0.1130
vn 0.0666 -0.4387 -0.8962
vn 0.6649 -0.7310 0.1532
vn -0.1994 0.9190 -0.3400
vn 0.6033 0.6570 0.4521
vn -0.8760 -0.2281 -0.4251
vn 0.4961 -0.4840 -0.7209
vn -0.2731 0.9448 0.1810
vn 0.2929 0.9402 -0.1739
vn -0.7609 -0.3241 0.5621
vn -0.6946 -0.3344 -0.6370
vn 0.3452 0.7265 0.5942
vn 0.3404 0.7204 -0.6043
vn 0.3790 -0.5976 0.7066
vn -0.8956 -0.3065 0.3224
vn 0.7196 0.6861 0.1073
vn -0.4602 0.7418 -0.4878
vn 0.9128 -0.3617 -0.1896
vn 0.1402 -0.5425 0.8283
vn 0.1048 0.7626 -0.6383
vn -0.5168 0.7112 0.4765
# 148 vertex normals

vt -5.0124 -5.0124 4.8301
vt -5.8953 -2.9733 3.9473
vt -3.2125 -3.2125 2.3239
vt -2.9733 -5.8953 3.9473
vt -6.3310 0.0000 3.5115
vt -3.4517 0.0000 1.7771
vt 0.0000 -3.4517 1.7771
vt 0.0000 -6.3310 3.5115
vt 0.0000 0.0000 1.1961
vt -5.8953 2.9733 3.9473
vt -5.0124 5.0124 4.8301
vt -2.9733 5.8953 3.9473
vt -3.2125 3.2125 2.3239
vt 0.0000 6.3310 3.5115
vt 0.0000 3.4517 1.7771
vt 5.0124 5.0124 4.8301
vt 5.8953 2.9733 3.9473
vt 3.2125 3.2125 2.3239
vt 2.9733 5.8953 3.9473
vt 6.3310 0.0000 3.5115
vt 3.4517 0.0000 1.7771
vt 5.8953 -2.9733 3.9473
vt 5.0124 -5.0124 4.8301
vt 2.9733 -5.8953 3.9473
vt 3.2125 -3.2125 2.3239
vt -5.0124 -5.0124 14.8549
vt -2.9733 -5.8953 15.7378
vt -2.5668 -2.5668 17.3611
vt -5.8953 -2.9733 15.7378
vt 0.0000 -6.3310 16.1735
vt 0.0000 -3.4517 17.6759
vt -3.4517 0.0000 17.6759
vt -6.3310 0.0000 16.1735
vt 0.0000 0.0000 17.2964
vt 2.9733 -5.8953 15.7378
vt 5.0124 -5.0124 14.8549
vt 5.8953 -2.9733 15.7378
vt 2.5668 -2.5668 17.3611
vt 6.3310 0.0000 16.1735
vt 3.4517 0.0000 17.6759
vt 5.0124 5.0124 14.8549
vt 2.9733 5.8953 15.7378
vt 2.5668 2.5668 17.3611
vt 5.8953 2.9733 15.7378
vt 0.0000 6.3310 16.1735
vt 0.0000 3.4517 17.6759
vt -2.9733 5.8953 15.7378
vt -5.0124 5.0124 14.8549
vt -5.8953 2.9733 15.7378
vt -2.5668 2.5668 17.3611
vt -3.2125 -7.5186 6.6300
vt -5.8953 -5.8953 6.8693
vt 0.0000 -8.0654 6.3908
vt -3.4517 -8.0654 9.8425
vt -6.3310 -6.3310 9.8425
vt 0.0000 -8.6464 9.8425
vt 5.8953 -5.8953 6.8693
vt 3.2125 -7.5186 6.6300
vt 6.3310 -6.3310 9.8425
vt 3.4517 -8.0654 9.8425
vt 3.2125 -7.5186 13.0550
vt 5.8953 -5.8953 12.8158
vt 0.0000 -8.0654 13.2942
vt -5.8953 -5.8953 12.8158
vt -3.2125 -7.5186 13.0550
vt 7.5186 -3.2125 6.6300
vt 8.0654 0.0000 6.3908
vt 8.0654 -3.4517 9.8425
vt 8.6464 0.0000 9.8425
vt 5.8953 5.8953 6.8693
vt 7.5186 3.2125 6.6300
vt 6.3310 6.3310 9.8425
vt 8.0654 3.4517 9.8425
vt 7.5186 3.2125 13.0550
vt 5.8953 5.8953 12.8158
vt 8.0654 0.0000 13.2942
vt 7.5186 -3.2125 13.0550
vt 3.2125 7.5186 6.6300
vt 0.0000 8.0654 6.3908
vt 3.4517 8.0654 9.8425
vt 0.0000 8.6464 9.8425
vt -5.8953 5.8953 6.8693
vt -3.2125 7.5186 6.6300
vt -6.3310 6.3310 9.8425
vt -3.4517 8.0654 9.8425
vt -3.2125 7.5186 13.0550
vt -5.8953 5.8953 12.8158
vt 0.0000 8.0654 13.2942
vt 3.2125 7.5186 13.0550
vt -7.5186 3.2125 6.6300
vt -8.0654 0.0000 6.3908
vt -8.0654 3.4517 9.8425
vt -8.6464 0.0000 9.8425
vt -7.5186 -3.2125 6.6300
vt -8.0654 -3.4517 9.8425
vt -7.5186 -3.2125 13.0550
vt -8.0654 0.0000 13.2942
vt -7.5186 3.2125 13.0550
vt 0.2045 0.0000 -0.3820
vt 0.0674 0.0000 -1.2361
vt 0.5281 0.0000 -0.3820
vt 0.9500 0.0000 1.0000
vt 0.7500 0.0000 1.0000
vt 0.9500 1.0000 1.0000
vt 0.7500 1.0000 1.0000
vt -0.0500 0.0000 1.0000
vt 0.1500 0.0000 1.0000
vt 0.1500 1.0000 1.0000
vt -0.0500 1.0000 1.0000
vt 0.3500 0.0000 1.0000
vt 0.3500 1.0000 1.0000
vt 0.5500 0.0000 1.0000
vt 0.5500 1.0000 1.0000
vt 0.5281 1.0000 -0.3820
vt 0.0674 1.0000 -1.2361
# 115 texture coords

o Orange
g Orange
usemtl 07___Default
s 1
f 1/1/1 2/2/2 3/3/3 4/4/4 
f 2/2/2 5/5/5 6/6/6 3/3/3 
f 4/4/4 3/3/3 7/7/7 8/8/8 
f 3/3/3 6/6/6 9/9/9 7/7/7 
f 10/10/10 11/11/11 12/12/12 13/13/13 
f 13/13/13 12/12/12 14/14/14 15/15/15 
f 5/5/5 10/10/10 13/13/13 6/6/6 
f 6/6/6 13/13/13 15/15/15 9/9/9 
f 16/16/16 17/17/17 18/18/18 19/19/19 
f 17/17/17 20/20/20 21/21/21 18/18/18 
f 19/19/19 18/18/18 15/15/15 14/14/14 
f 18/18/18 21/21/21 9/9/9 15/15/15 
f 22/22/22 23/23/23 24/24/24 25/25/25 
f 25/25/25 24/24/24 8/8/8 7/7/7 
f 20/20/20 22/22/22 25/25/25 21/21/21 
f 21/21/21 25/25/25 7/7/7 9/9/9 
f 26/26/26 27/27/27 28/28/28 29/29/29 
f 27/27/27 30/30/30 31/31/31 28/28/28 
f 29/29/29 28/28/28 32/32/32 33/33/33 
f 28/28/28 31/31/31 34/34/34 32/32/32 
f 35/35/35 36/36/36 37/37/37 38/38/38 
f 38/38/38 37/37/37 39/39/39 40/40/40 
f 30/30/30 35/35/35 38/38/38 31/31/31 
f 31/31/31 38/38/38 40/40/40 34/34/34 
f 41/41/41 42/42/42 43/43/43 44/44/44 
f 42/42/42 45/45/45 46/46/46 43/43/43 
f 44/44/44 43/43/43 40/40/40 39/39/39 
f 43/43/43 46/46/46 34/34/34 40/40/40 
f 47/47/47 48/48/48 49/49/49 50/50/50 
f 50/50/50 49/49/49 33/33/33 32/32/32 
f 45/45/45 47/47/47 50/50/50 46/46/46 
f 46/46/46 50/50/50 32/32/32 34/34/34 
f 1/1/1 4/4/4 51/51/51 52/52/52 
f 4/4/4 8/8/8 53/53/53 51/51/51 
f 52/52/52 51/51/51 54/54/54 55/55/55 
f 51/51/51 53/53/53 56/56/56 54/54/54 
f 24/24/24 23/23/23 57/57/57 58/58/58 
f 58/58/58 57/57/57 59/59/59 60/60/60 
f 8/8/8 24/24/24 58/58/58 53/53/53 
f 53/53/53 58/58/58 60/60/60 56/56/56 
f 36/36/36 35/35/35 61/61/61 62/62/62 
f 35/35/35 30/30/30 63/63/63 61/61/61 
f 62/62/62 61/61/61 60/60/60 59/59/59 
f 61/61/61 63/63/63 56/56/56 60/60/60 
f 27/27/27 26/26/26 64/64/64 65/65/65 
f 65/65/65 64/64/64 55/55/55 54/54/54 
f 30/30/30 27/27/27 65/65/65 63/63/63 
f 63/63/63 65/65/65 54/54/54 56/56/56 
f 23/23/23 22/22/22 66/66/66 57/57/57 
f 22/22/22 20/20/20 67/67/67 66/66/66 
f 57/57/57 66/66/66 68/68/68 59/59/59 
f 66/66/66 67/67/67 69/69/69 68/68/68 
f 17/17/17 16/16/16 70/70/70 71/71/71 
f 71/71/71 70/70/70 72/72/72 73/73/73 
f 20/20/20 17/17/17 71/71/71 67/67/67 
f 67/67/67 71/71/71 73/73/73 69/69/69 
f 41/41/41 44/44/44 74/74/74 75/75/75 
f 44/44/44 39/39/39 76/76/76 74/74/74 
f 75/75/75 74/74/74 73/73/73 72/72/72 
f 74/74/74 76/76/76 69/69/69 73/73/73 
f 37/37/37 36/36/36 62/62/62 77/77/77 
f 77/77/77 62/62/62 59/59/59 68/68/68 
f 39/39/39 37/37/37 77/77/77 76/76/76 
f 76/76/76 77/77/77 68/68/68 69/69/69 
f 16/16/16 19/19/19 78/78/78 70/70/70 
f 19/19/19 14/14/14 79/79/79 78/78/78 
f 70/70/70 78/78/78 80/80/80 72/72/72 
f 78/78/78 79/79/79 81/81/81 80/80/80 
f 12/12/12 11/11/11 82/82/82 83/83/83 
f 83/83/83 82/82/82 84/84/84 85/85/85 
f 14/14/14 12/12/12 83/83/83 79/79/79 
f 79/79/79 83/83/83 85/85/85 81/81/81 
f 48/48/48 47/47/47 86/86/86 87/87/87 
f 47/47/47 45/45/45 88/88/88 86/86/86 
f 87/87/87 86/86/86 85/85/85 84/84/84 
f 86/86/86 88/88/88 81/81/81 85/85/85 
f 42/42/42 41/41/41 75/75/75 89/89/89 
f 89/89/89 75/75/75 72/72/72 80/80/80 
f 45/45/45 42/42/42 89/89/89 88/88/88 
f 88/88/88 89/89/89 80/80/80 81/81/81 
f 11/11/11 10/10/10 90/90/90 82/82/82 
f 10/10/10 5/5/5 91/91/91 90/90/90 
f 82/82/82 90/90/90 92/92/92 84/84/84 
f 90/90/90 91/91/91 93/93/93 92/92/92 
f 2/2/2 1/1/1 52/52/52 94/94/94 
f 94/94/94 52/52/52 55/55/55 95/95/95 
f 5/5/5 2/2/2 94/94/94 91/91/91 
f 91/91/91 94/94/94 95/95/95 93/93/93 
f 26/26/26 29/29/29 96/96/96 64/64/64 
f 29/29/29 33/33/33 97/97/97 96/96/96 
f 64/64/64 96/96/96 95/95/95 55/55/55 
f 96/96/96 97/97/97 93/93/93 95/95/95 
f 49/49/49 48/48/48 87/87/87 98/98/98 
f 98/98/98 87/87/87 84/84/84 92/92/92 
f 33/33/33 49/49/49 98/98/98 97/97/97 
f 97/97/97 98/98/98 92/92/92 93/93/93 
usemtl 09___Default
f 99/99/99 100/100/100 101/101/101 102/102/102 103/103/103 
s 8
f 104/103/104 105/102/105 106/104/106 107/105/107 
f 108/106/108 109/107/109 110/108/110 111/109/111 
f 112/107/112 113/110/113 114/111/114 115/108/115 
f 116/110/116 117/112/117 118/113/118 119/111/119 
f 120/112/120 121/103/121 122/105/122 123/113/123 
s 1
f 124/113/124 125/105/125 126/104/126 127/114/127 128/115/128 
s off
f 103/103/103 102/102/102 129/102/129 130/103/130 
f 102/102/102 126/104/126 131/104/131 129/102/129 
f 126/104/126 125/105/125 132/105/132 131/104/131 
f 125/105/125 103/103/103 130/103/130 132/105/132 
f 102/106/102 101/107/101 133/107/133 134/106/134 
f 101/107/101 127/108/127 135/108/135 133/107/133 
f 127/108/127 126/109/126 136/109/136 135/108/135 
f 126/109/126 102/106/102 134/106/134 136/109/136 
f 101/107/101 100/110/100 137/110/137 138/107/138 
f 100/110/100 128/111/128 139/111/139 137/110/137 
f 128/111/128 127/108/127 140/108/140 139/111/139 
f 127/108/127 101/107/101 138/107/138 140/108/140 
f 100/110/100 99/112/99 141/112/141 142/110/142 
f 99/112/99 124/113/124 143/113/143 141/112/141 
f 124/113/124 128/111/128 144/111/144 143/113/143 
f 128/111/128 100/110/100 142/110/142 144/111/144 
f 99/112/99 103/103/103 145/103/145 146/112/146 
f 103/103/103 125/105/125 147/105/147 145/103/145 
f 125/105/125 124/113/124 148/113/148 147/105/147 
f 124/113/124 99/112/99 146/112/146 148/113/148 
f 129/102/129 105/102/105 104/103/104 130/103/130 
f 131/104/131 106/104/106 105/102/105 129/102/129 
f 132/105/132 107/105/107 106/104/106 131/104/131 
f 130/103/130 104/103/104 107/105/107 132/105/132 
f 133/107/133 109/107/109 108/106/108 134/106/134 
f 135/108/135 110/108/110 109/107/109 133/107/133 
f 136/109/136 111/109/111 110/108/110 135/108/135 
f 134/106/134 108/106/108 111/109/111 136/109/136 
f 137/110/137 113/110/113 112/107/112 138/107/138 
f 139/111/139 114/111/114 113/110/113 137/110/137 
f 140/108/140 115/108/115 114/111/114 139/111/139 
f 138/107/138 112/107/112 115/108/115 140/108/140 
f 141/112/141 117/112/117 116/110/116 142/110/142 
f 143/113/143 118/113/118 117/112/117 141/112/141 
f 144/111/144 119/111/119 118/113/118 143/113/143 
f 142/110/142 116/110/116 119/111/119 144/111/144 
f 145/103/145 121/103/121 120/112/120 146/112/146 
f 147/105/147 122/105/122 121/103/121 145/103/145 
f 148/113/148 123/113/123 122/105/122 147/105/147 
f 146/112/146 120/112/120 123/113/123 148/113/148 
# 143 polygons

