# 3ds Max Wavefront OBJ Exporter v0.97b - (c)2007 guruware
# File Created: 05.08.2021 15:56:17

mtllib watermelon.mtl

#
# object Watermelon
#

v  12.7119 8.9010 0.0000
v  14.9303 2.9522 0.0000
v  14.4581 3.6266 -3.0727
v  13.1679 5.4692 -5.3221
v  11.4055 7.9862 -6.1454
v  9.6431 10.5032 -5.3221
v  8.3529 12.3458 -3.0727
v  7.8807 13.0202 -0.0000
v  8.3529 12.3458 3.0727
v  9.6431 10.5032 5.3221
v  11.4055 7.9862 6.1454
v  13.1679 5.4692 5.3221
v  14.4581 3.6267 3.0727
v  12.6902 -4.1083 0.0000
v  11.8722 -2.9402 -5.3221
v  9.6376 0.2513 -9.2181
v  6.5850 4.6108 -10.6441
v  3.5324 8.9704 -9.2181
v  1.2977 12.1618 -5.3221
v  0.4798 13.3300 -0.0000
v  1.2977 12.1618 5.3220
v  3.5324 8.9704 9.2181
v  6.5850 4.6109 10.6441
v  9.6376 0.2513 9.2181
v  11.8722 -2.9401 5.3221
v  7.0497 -10.0680 -0.0000
v  6.1052 -8.7191 -6.1454
v  3.5248 -5.0340 -10.6441
v  0.0000 -0.0000 -12.2908
v  -3.5248 5.0340 -10.6441
v  -6.1052 8.7191 -6.1454
v  -7.0497 10.0680 -0.0000
v  -6.1052 8.7191 6.1454
v  -3.5248 5.0340 10.6441
v  -0.0000 0.0000 12.2908
v  3.5248 -5.0340 10.6441
v  6.1052 -8.7191 6.1454
v  -0.4798 -13.3300 -0.0000
v  -1.2977 -12.1618 -5.3221
v  -3.5324 -8.9704 -9.2181
v  -6.5850 -4.6108 -10.6441
v  -9.6376 -0.2513 -9.2181
v  -11.8722 2.9401 -5.3221
v  -12.6902 4.1083 -0.0000
v  -11.8722 2.9402 5.3220
v  -9.6376 -0.2513 9.2181
v  -6.5850 -4.6108 10.6441
v  -3.5324 -8.9704 9.2181
v  -1.2977 -12.1618 5.3221
v  -7.8807 -13.0202 -0.0000
v  -8.3529 -12.3458 -3.0727
v  -9.6431 -10.5032 -5.3221
v  -11.4055 -7.9862 -6.1454
v  -13.1679 -5.4692 -5.3221
v  -14.4581 -3.6266 -3.0727
v  -14.9303 -2.9522 -0.0000
v  -14.4581 -3.6266 3.0727
v  -13.1679 -5.4692 5.3221
v  -11.4055 -7.9862 6.1454
v  -9.6431 -10.5032 5.3221
v  -8.3529 -12.3458 3.0727
v  -12.5881 -8.8142 -0.0000
v  12.8721 7.9657 0.2715
v  12.6146 8.4119 0.7867
v  12.2627 9.0214 0.5981
v  12.1684 9.1847 -0.1057
v  12.4260 8.7385 -0.6208
v  12.7779 8.1290 -0.4323
v  13.8953 9.2957 -0.5738
v  14.0490 8.7351 -0.4106
v  13.8298 9.7249 -0.1544
v  13.9181 9.5937 0.4282
v  14.0717 9.0332 0.5915
v  14.1372 8.6039 0.1721
v  15.4617 9.4220 -0.6678
v  15.4672 8.9659 -0.5222
v  15.5347 9.7749 -0.3525
v  15.6132 9.6716 0.1085
v  15.6187 9.2155 0.2541
v  15.5457 8.8626 -0.0613
v  16.9902 9.1022 -0.8848
v  16.9106 8.7813 -0.7584
v  17.1339 9.3456 -0.6717
v  17.1981 9.2681 -0.3324
v  17.1185 8.9472 -0.2060
v  16.9748 8.7038 -0.4191
# 86 vertices

vn 0.8192 0.5736 0.0000
vn 0.9969 0.0790 0.0000
vn 0.9579 0.1347 -0.2535
vn 0.8515 0.2867 -0.4391
vn 0.7060 0.4944 -0.5071
vn 0.5606 0.7021 -0.4391
vn 0.4542 0.8541 -0.2535
vn 0.4152 0.9097 -0.0000
vn 0.4542 0.8541 0.2535
vn 0.5606 0.7021 0.4391
vn 0.7060 0.4944 0.5071
vn 0.8515 0.2867 0.4391
vn 0.9579 0.1347 0.2535
vn 0.8976 -0.4409 0.0000
vn 0.8302 -0.3448 -0.4380
vn 0.6463 -0.0821 -0.7586
vn 0.3951 0.2767 -0.8760
vn 0.1439 0.6354 -0.7586
vn -0.0400 0.8981 -0.4380
vn -0.1073 0.9942 -0.0000
vn -0.0400 0.8981 0.4380
vn 0.1439 0.6354 0.7586
vn 0.3951 0.2767 0.8760
vn 0.6463 -0.0821 0.7586
vn 0.8302 -0.3448 0.4380
vn 0.5736 -0.8192 0.0000
vn 0.4967 -0.7094 -0.5000
vn 0.2868 -0.4096 -0.8660
vn 0.0000 -0.0000 -1.0000
vn -0.2868 0.4096 -0.8660
vn -0.4967 0.7094 -0.5000
vn -0.5736 0.8192 -0.0000
vn -0.4967 0.7094 0.5000
vn -0.2868 0.4096 0.8660
vn -0.0000 0.0000 1.0000
vn 0.2868 -0.4096 0.8660
vn 0.4967 -0.7094 0.5000
vn 0.1073 -0.9942 0.0000
vn 0.0400 -0.8981 -0.4380
vn -0.1439 -0.6354 -0.7586
vn -0.3951 -0.2767 -0.8760
vn -0.6463 0.0821 -0.7586
vn -0.8302 0.3448 -0.4380
vn -0.8976 0.4409 -0.0000
vn -0.8302 0.3448 0.4380
vn -0.6463 0.0821 0.7586
vn -0.3951 -0.2767 0.8760
vn -0.1439 -0.6354 0.7586
vn 0.0400 -0.8981 0.4380
vn -0.4221 -0.9065 0.0000
vn -0.4606 -0.8516 -0.2502
vn -0.5657 -0.7016 -0.4334
vn -0.7092 -0.4966 -0.5004
vn -0.8527 -0.2916 -0.4334
vn -0.9578 -0.1416 -0.2502
vn -0.9962 -0.0866 -0.0000
vn -0.9578 -0.1416 0.2502
vn -0.8527 -0.2916 0.4334
vn -0.7092 -0.4966 0.5004
vn -0.5657 -0.7016 0.4334
vn -0.4606 -0.8516 0.2502
vn -0.8192 -0.5736 -0.0000
vn -0.1713 -0.9587 0.2271
vn -0.4015 -0.4261 0.8107
vn -0.7527 0.2849 0.5935
vn -0.8623 0.4663 -0.1976
vn -0.6218 -0.0606 -0.7808
vn -0.2802 -0.7776 -0.5628
vn -0.0439 0.3020 -0.9523
vn 0.1269 -0.6914 -0.7112
vn -0.0936 0.9646 -0.2466
vn 0.0393 0.7600 0.6488
vn 0.2412 -0.1316 0.9615
vn 0.2768 -0.9148 0.2942
vn -0.0480 0.2647 -0.9631
vn -0.1756 -0.7353 -0.6546
vn 0.1745 0.9424 -0.2853
vn 0.3215 0.7448 0.5847
vn 0.2795 -0.1626 0.9463
vn -0.0071 -0.9497 0.3130
vn 0.4561 0.0081 -0.8899
vn 0.3465 -0.7205 -0.6006
vn 0.7415 0.5550 -0.3772
vn 0.8663 0.4004 0.2988
vn 0.7310 -0.3263 0.5993
vn 0.4716 -0.8777 0.0855
# 86 vertex normals

vt 0.0000 1.0000 0.0000
vt 0.0000 0.8333 0.0000
vt 0.0833 0.8333 0.0000
vt 0.0833 1.0000 0.0000
vt 0.1667 0.8333 0.0000
vt 0.1667 1.0000 0.0000
vt 0.2500 0.8333 0.0000
vt 0.2500 1.0000 0.0000
vt 0.3333 0.8333 0.0000
vt 0.3333 1.0000 0.0000
vt 0.4167 0.8333 0.0000
vt 0.4167 1.0000 0.0000
vt 0.5000 0.8333 0.0000
vt 0.5000 1.0000 0.0000
vt 0.5833 0.8333 0.0000
vt 0.5833 1.0000 0.0000
vt 0.6667 0.8333 0.0000
vt 0.6667 1.0000 0.0000
vt 0.7500 0.8333 0.0000
vt 0.7500 1.0000 0.0000
vt 0.8333 0.8333 0.0000
vt 0.8333 1.0000 0.0000
vt 0.9167 0.8333 0.0000
vt 0.9167 1.0000 0.0000
vt 1.0000 0.8333 0.0000
vt 0.0000 0.6667 0.0000
vt 0.0833 0.6667 0.0000
vt 0.1667 0.6667 0.0000
vt 0.2500 0.6667 0.0000
vt 0.3333 0.6667 0.0000
vt 0.4167 0.6667 0.0000
vt 0.5000 0.6667 0.0000
vt 0.5833 0.6667 0.0000
vt 0.6667 0.6667 0.0000
vt 0.7500 0.6667 0.0000
vt 0.8333 0.6667 0.0000
vt 0.9167 0.6667 0.0000
vt 1.0000 0.6667 0.0000
vt 0.0000 0.5000 0.0000
vt 0.0833 0.5000 0.0000
vt 0.1667 0.5000 0.0000
vt 0.2500 0.5000 0.0000
vt 0.3333 0.5000 0.0000
vt 0.4167 0.5000 0.0000
vt 0.5000 0.5000 0.0000
vt 0.5833 0.5000 0.0000
vt 0.6667 0.5000 0.0000
vt 0.7500 0.5000 0.0000
vt 0.8333 0.5000 0.0000
vt 0.9167 0.5000 0.0000
vt 1.0000 0.5000 0.0000
vt 0.0000 0.3333 0.0000
vt 0.0833 0.3333 0.0000
vt 0.1667 0.3333 0.0000
vt 0.2500 0.3333 0.0000
vt 0.3333 0.3333 0.0000
vt 0.4167 0.3333 0.0000
vt 0.5000 0.3333 0.0000
vt 0.5833 0.3333 0.0000
vt 0.6667 0.3333 0.0000
vt 0.7500 0.3333 0.0000
vt 0.8333 0.3333 0.0000
vt 0.9167 0.3333 0.0000
vt 1.0000 0.3333 0.0000
vt 0.0000 0.1667 0.0000
vt 0.0833 0.1667 0.0000
vt 0.1667 0.1667 0.0000
vt 0.2500 0.1667 0.0000
vt 0.3333 0.1667 0.0000
vt 0.4167 0.1667 0.0000
vt 0.5000 0.1667 0.0000
vt 0.5833 0.1667 0.0000
vt 0.6667 0.1667 0.0000
vt 0.7500 0.1667 0.0000
vt 0.8333 0.1667 0.0000
vt 0.9167 0.1667 0.0000
vt 1.0000 0.1667 0.0000
vt 0.0000 0.0000 0.0000
vt 0.0833 0.0000 0.0000
vt 0.1667 0.0000 0.0000
vt 0.2500 0.0000 0.0000
vt 0.3333 0.0000 0.0000
vt 0.4167 0.0000 0.0000
vt 0.5000 0.0000 0.0000
vt 0.5833 0.0000 0.0000
vt 0.6667 0.0000 0.0000
vt 0.7500 0.0000 0.0000
vt 0.8333 0.0000 0.0000
vt 0.9167 0.0000 0.0000
vt 0.3333 0.0000 -0.0000
vt 0.0833 0.0000 -1.0000
vt 0.2500 0.0000 -1.0000
vt 0.9167 0.0000 1.0000
vt 0.7500 0.0000 1.0000
vt 0.9167 0.3333 0.8286
vt 0.7500 0.3333 0.8286
vt -0.0833 0.0000 1.0000
vt 0.0833 0.0000 1.0000
vt 0.0833 0.3333 0.8286
vt -0.0833 0.3333 0.8286
vt 0.2500 0.0000 1.0000
vt 0.2500 0.3333 0.8286
vt 0.4167 0.0000 1.0000
vt 0.4167 0.3333 0.8286
vt 0.5833 0.0000 1.0000
vt 0.5833 0.3333 0.8286
vt 0.9167 0.6667 0.6572
vt 0.7500 0.6667 0.6572
vt 0.0833 0.6667 0.6572
vt -0.0833 0.6667 0.6572
vt 0.2500 0.6667 0.6572
vt 0.4167 0.6667 0.6572
vt 0.5833 0.6667 0.6572
vt 0.9167 1.0000 0.4858
vt 0.7500 1.0000 0.4858
vt 0.0833 1.0000 0.4858
vt -0.0833 1.0000 0.4858
vt 0.2500 1.0000 0.4858
vt 0.4167 1.0000 0.4858
vt 0.5833 1.0000 0.4858
vt 0.2500 1.0000 -0.4858
vt 0.0833 1.0000 -0.4858
# 122 texture coords

o Watermelon
g Watermelon
usemtl 01___Default
s 1
f 1/1/1 2/2/2 3/3/3 
f 1/4/1 3/3/3 4/5/4 
f 1/6/1 4/5/4 5/7/5 
f 1/8/1 5/7/5 6/9/6 
f 1/10/1 6/9/6 7/11/7 
f 1/12/1 7/11/7 8/13/8 
f 1/14/1 8/13/8 9/15/9 
f 1/16/1 9/15/9 10/17/10 
f 1/18/1 10/17/10 11/19/11 
f 1/20/1 11/19/11 12/21/12 
f 1/22/1 12/21/12 13/23/13 
f 1/24/1 13/23/13 2/25/2 
f 2/2/2 14/26/14 15/27/15 3/3/3 
f 3/3/3 15/27/15 16/28/16 4/5/4 
f 4/5/4 16/28/16 17/29/17 5/7/5 
f 5/7/5 17/29/17 18/30/18 6/9/6 
f 6/9/6 18/30/18 19/31/19 7/11/7 
f 7/11/7 19/31/19 20/32/20 8/13/8 
f 8/13/8 20/32/20 21/33/21 9/15/9 
f 9/15/9 21/33/21 22/34/22 10/17/10 
f 10/17/10 22/34/22 23/35/23 11/19/11 
f 11/19/11 23/35/23 24/36/24 12/21/12 
f 12/21/12 24/36/24 25/37/25 13/23/13 
f 13/23/13 25/37/25 14/38/14 2/25/2 
f 14/26/14 26/39/26 27/40/27 15/27/15 
f 15/27/15 27/40/27 28/41/28 16/28/16 
f 16/28/16 28/41/28 29/42/29 17/29/17 
f 17/29/17 29/42/29 30/43/30 18/30/18 
f 18/30/18 30/43/30 31/44/31 19/31/19 
f 19/31/19 31/44/31 32/45/32 20/32/20 
f 20/32/20 32/45/32 33/46/33 21/33/21 
f 21/33/21 33/46/33 34/47/34 22/34/22 
f 22/34/22 34/47/34 35/48/35 23/35/23 
f 23/35/23 35/48/35 36/49/36 24/36/24 
f 24/36/24 36/49/36 37/50/37 25/37/25 
f 25/37/25 37/50/37 26/51/26 14/38/14 
f 26/39/26 38/52/38 39/53/39 27/40/27 
f 27/40/27 39/53/39 40/54/40 28/41/28 
f 28/41/28 40/54/40 41/55/41 29/42/29 
f 29/42/29 41/55/41 42/56/42 30/43/30 
f 30/43/30 42/56/42 43/57/43 31/44/31 
f 31/44/31 43/57/43 44/58/44 32/45/32 
f 32/45/32 44/58/44 45/59/45 33/46/33 
f 33/46/33 45/59/45 46/60/46 34/47/34 
f 34/47/34 46/60/46 47/61/47 35/48/35 
f 35/48/35 47/61/47 48/62/48 36/49/36 
f 36/49/36 48/62/48 49/63/49 37/50/37 
f 37/50/37 49/63/49 38/64/38 26/51/26 
f 38/52/38 50/65/50 51/66/51 39/53/39 
f 39/53/39 51/66/51 52/67/52 40/54/40 
f 40/54/40 52/67/52 53/68/53 41/55/41 
f 41/55/41 53/68/53 54/69/54 42/56/42 
f 42/56/42 54/69/54 55/70/55 43/57/43 
f 43/57/43 55/70/55 56/71/56 44/58/44 
f 44/58/44 56/71/56 57/72/57 45/59/45 
f 45/59/45 57/72/57 58/73/58 46/60/46 
f 46/60/46 58/73/58 59/74/59 47/61/47 
f 47/61/47 59/74/59 60/75/60 48/62/48 
f 48/62/48 60/75/60 61/76/61 49/63/49 
f 49/63/49 61/76/61 50/77/50 38/64/38 
f 62/78/62 51/66/51 50/65/50 
f 62/79/62 52/67/52 51/66/51 
f 62/80/62 53/68/53 52/67/52 
f 62/81/62 54/69/54 53/68/53 
f 62/82/62 55/70/55 54/69/54 
f 62/83/62 56/71/56 55/70/55 
f 62/84/62 57/72/57 56/71/56 
f 62/85/62 58/73/58 57/72/57 
f 62/86/62 59/74/59 58/73/58 
f 62/87/62 60/75/60 59/74/59 
f 62/88/62 61/76/61 60/75/60 
f 62/89/62 50/77/50 61/76/61 
usemtl 03___Default
f 63/90/63 64/91/64 65/92/65 66/86/66 67/93/67 68/94/68 
s 8
f 68/94/68 67/93/67 69/95/69 70/96/70 
f 67/97/67 66/98/66 71/99/71 69/100/69 
f 66/98/66 65/101/65 72/102/72 71/99/71 
f 65/101/65 64/103/64 73/104/73 72/102/72 
f 64/103/64 63/105/63 74/106/74 73/104/73 
f 63/105/63 68/94/68 70/96/70 74/106/74 
f 70/96/70 69/95/69 75/107/75 76/108/76 
f 69/100/69 71/99/71 77/109/77 75/110/75 
f 71/99/71 72/102/72 78/111/78 77/109/77 
f 72/102/72 73/104/73 79/112/79 78/111/78 
f 73/104/73 74/106/74 80/113/80 79/112/79 
f 74/106/74 70/96/70 76/108/76 80/113/80 
f 76/108/76 75/107/75 81/114/81 82/115/82 
f 75/110/75 77/109/77 83/116/83 81/117/81 
f 77/109/77 78/111/78 84/118/84 83/116/83 
f 78/111/78 79/112/79 85/119/85 84/118/84 
f 79/112/79 80/113/80 86/120/86 85/119/85 
f 80/113/80 76/108/76 82/115/82 86/120/86 
s 1
f 86/120/86 82/115/82 81/114/81 83/18/83 84/121/84 85/122/85 
# 68 polygons - 24 triangles

